<svg id="svg" version="1.1" xmlns="http://www.w3.org/2000/svg" xmlns:xlink="http://www.w3.org/1999/xlink" width="400" height="236.05706874189366" viewBox="0, 0, 400,236.05706874189366"><g id="svgg"><path id="path0" d="M186.754 3.541 C 186.547 3.662,185.511 3.833,184.452 3.922 C 183.393 4.010,182.527 4.173,182.527 4.284 C 182.527 4.395,182.155 4.486,181.700 4.486 C 181.246 4.486,180.874 4.593,180.874 4.723 C 180.874 4.856,180.205 4.959,179.339 4.959 C 178.495 4.959,177.804 5.057,177.804 5.176 C 177.804 5.296,177.034 5.450,176.092 5.518 C 173.216 5.727,172.028 5.941,171.830 6.284 C 171.726 6.464,171.334 6.612,170.959 6.612 C 170.583 6.612,170.210 6.718,170.130 6.848 C 170.050 6.978,169.618 7.084,169.171 7.084 C 168.725 7.084,168.359 7.190,168.359 7.320 C 168.359 7.450,168.146 7.556,167.887 7.556 C 167.627 7.556,167.414 7.662,167.414 7.792 C 167.414 7.922,167.043 8.028,166.588 8.028 C 166.133 8.028,165.762 8.135,165.762 8.264 C 165.762 8.394,165.502 8.501,165.185 8.501 C 164.868 8.501,164.543 8.607,164.463 8.737 C 164.383 8.867,164.031 8.973,163.681 8.974 C 163.332 8.975,162.742 9.134,162.370 9.328 C 161.998 9.522,161.334 9.681,160.894 9.681 C 160.454 9.681,160.094 9.761,160.093 9.858 C 160.090 10.135,158.886 10.626,158.210 10.626 C 157.872 10.626,157.450 10.836,157.261 11.098 C 157.068 11.365,156.650 11.570,156.297 11.570 C 155.908 11.570,155.508 11.792,155.231 12.161 C 154.917 12.579,154.563 12.751,154.017 12.751 C 153.593 12.751,153.247 12.857,153.247 12.987 C 153.247 13.117,152.842 13.223,152.347 13.223 C 151.773 13.223,151.263 13.394,150.940 13.695 C 150.661 13.955,150.163 14.168,149.833 14.168 C 149.503 14.168,149.233 14.289,149.233 14.437 C 149.233 14.851,148.474 15.332,147.809 15.341 C 147.480 15.345,147.059 15.561,146.871 15.821 C 146.684 16.080,146.334 16.293,146.094 16.293 C 145.615 16.293,144.982 16.821,144.982 17.220 C 144.982 17.360,144.723 17.473,144.406 17.473 C 144.089 17.473,143.764 17.580,143.684 17.710 C 143.603 17.839,143.195 17.946,142.777 17.946 C 142.288 17.946,141.896 18.114,141.677 18.418 C 141.489 18.678,141.139 18.890,140.899 18.890 C 140.420 18.890,139.787 19.418,139.787 19.818 C 139.787 19.957,139.598 20.071,139.367 20.071 C 139.136 20.071,138.794 20.283,138.607 20.543 C 138.420 20.803,138.024 21.015,137.728 21.015 C 137.432 21.015,137.190 21.122,137.190 21.251 C 137.190 21.381,136.912 21.488,136.571 21.488 C 136.146 21.488,135.634 21.820,134.935 22.550 C 134.375 23.135,133.750 23.613,133.546 23.613 C 133.343 23.613,133.176 23.719,133.176 23.849 C 133.176 23.979,133.062 24.085,132.923 24.085 C 132.596 24.085,131.995 24.686,131.995 25.013 C 131.995 25.152,131.677 25.266,131.287 25.266 C 130.897 25.266,130.579 25.372,130.579 25.502 C 130.579 25.632,130.462 25.738,130.319 25.738 C 130.176 25.738,129.762 26.057,129.398 26.446 C 129.034 26.836,128.566 27.155,128.359 27.155 C 128.151 27.155,127.981 27.314,127.981 27.509 C 127.981 27.704,127.845 27.863,127.679 27.863 C 127.513 27.863,127.224 28.076,127.037 28.335 C 126.837 28.613,126.425 28.808,126.040 28.808 C 125.679 28.808,125.384 28.914,125.384 29.044 C 125.384 29.174,125.270 29.280,125.131 29.280 C 124.861 29.280,124.203 29.859,124.203 30.097 C 124.203 30.341,122.580 31.877,122.322 31.877 C 122.188 31.877,122.078 31.983,122.078 32.113 C 122.078 32.243,121.865 32.349,121.606 32.349 C 121.346 32.349,121.133 32.461,121.133 32.596 C 121.133 32.856,120.074 34.002,119.835 34.002 C 119.649 34.002,118.536 35.121,118.536 35.307 C 118.536 35.596,117.853 36.128,117.482 36.128 C 117.099 36.128,115.466 37.606,115.466 37.953 C 115.466 38.056,115.201 38.340,114.876 38.584 C 114.551 38.828,114.286 39.148,114.286 39.296 C 114.286 39.444,114.073 39.718,113.813 39.906 C 113.554 40.093,113.341 40.382,113.341 40.548 C 113.341 40.714,113.174 40.850,112.970 40.850 C 112.766 40.850,112.465 40.983,112.301 41.145 C 112.137 41.308,111.719 41.652,111.373 41.910 C 111.027 42.168,110.744 42.570,110.744 42.803 C 110.744 43.190,109.298 44.864,108.964 44.864 C 108.726 44.864,108.146 45.522,108.146 45.792 C 108.146 45.931,108.040 46.045,107.910 46.045 C 107.780 46.045,107.674 46.209,107.674 46.410 C 107.674 46.821,106.647 47.934,106.268 47.934 C 106.132 47.934,106.021 48.051,106.021 48.193 C 106.021 48.336,105.702 48.751,105.313 49.115 C 104.923 49.478,104.604 49.907,104.604 50.068 C 104.604 50.228,104.339 50.605,104.014 50.906 C 103.689 51.207,103.424 51.573,103.424 51.719 C 103.424 51.865,102.999 52.393,102.479 52.893 C 101.960 53.392,101.535 53.915,101.535 54.055 C 101.535 54.195,101.375 54.309,101.181 54.309 C 100.986 54.309,100.826 54.479,100.826 54.687 C 100.826 54.894,100.508 55.362,100.118 55.726 C 99.728 56.090,99.410 56.505,99.410 56.647 C 99.410 56.790,99.303 56.907,99.174 56.907 C 99.044 56.907,98.937 57.226,98.937 57.615 C 98.937 58.005,98.816 58.323,98.668 58.323 C 98.322 58.323,97.774 59.044,97.764 59.511 C 97.760 59.710,97.544 60.025,97.285 60.213 C 97.025 60.400,96.812 60.742,96.812 60.973 C 96.812 61.204,96.706 61.393,96.576 61.393 C 96.446 61.393,96.340 61.553,96.340 61.747 C 96.340 61.942,96.226 62.102,96.087 62.102 C 95.636 62.102,95.159 62.761,95.159 63.383 C 95.159 63.717,95.053 63.991,94.923 63.991 C 94.793 63.991,94.687 64.150,94.687 64.345 C 94.687 64.540,94.581 64.699,94.451 64.699 C 94.321 64.699,94.215 64.992,94.215 65.351 C 94.215 65.771,94.005 66.161,93.625 66.447 C 93.300 66.691,93.034 67.045,93.034 67.235 C 93.034 67.424,92.715 67.877,92.326 68.241 C 91.881 68.657,91.617 69.137,91.617 69.533 C 91.617 70.176,91.146 70.838,90.690 70.838 C 90.551 70.838,90.437 71.187,90.437 71.613 C 90.437 72.116,90.272 72.506,89.965 72.727 C 89.687 72.927,89.492 73.339,89.492 73.724 C 89.492 74.085,89.386 74.380,89.256 74.380 C 89.126 74.380,89.020 74.600,89.020 74.869 C 89.020 75.392,88.509 76.033,88.092 76.033 C 87.953 76.033,87.839 76.438,87.839 76.933 C 87.839 77.507,87.668 78.017,87.367 78.340 C 87.107 78.619,86.895 79.147,86.895 79.513 C 86.895 79.908,86.703 80.318,86.423 80.519 C 86.116 80.741,85.950 81.131,85.950 81.634 C 85.950 82.060,85.848 82.409,85.722 82.409 C 85.597 82.409,85.424 82.940,85.338 83.589 C 85.252 84.238,85.089 84.770,84.975 84.770 C 84.862 84.770,84.770 84.929,84.770 85.124 C 84.770 85.319,84.664 85.478,84.534 85.478 C 84.404 85.478,84.298 85.850,84.298 86.305 C 84.298 86.759,84.191 87.131,84.061 87.131 C 83.932 87.131,83.825 87.344,83.825 87.603 C 83.825 87.863,83.719 88.076,83.589 88.076 C 83.459 88.076,83.353 88.378,83.353 88.748 C 83.353 89.385,82.753 90.891,82.398 91.145 C 82.218 91.275,81.982 92.499,81.784 94.333 C 81.714 94.982,81.560 95.615,81.442 95.738 C 81.324 95.861,81.228 96.260,81.228 96.623 C 81.228 96.987,81.122 97.285,80.992 97.285 C 80.862 97.285,80.756 97.703,80.756 98.215 C 80.756 98.727,80.661 99.204,80.546 99.275 C 80.431 99.346,80.267 99.778,80.181 100.234 C 80.096 100.689,79.935 101.063,79.824 101.063 C 79.622 101.063,79.432 102.139,79.191 104.664 C 79.119 105.410,78.975 106.021,78.869 106.021 C 78.651 106.021,78.428 107.457,78.243 110.034 C 78.174 111.008,77.993 111.880,77.842 111.974 C 77.638 112.100,77.568 116.398,77.568 128.799 L 77.568 145.454 76.106 145.455 C 75.302 145.455,74.578 145.348,74.498 145.218 C 74.412 145.079,73.005 144.982,71.074 144.982 C 69.144 144.982,67.736 144.885,67.651 144.746 C 67.565 144.607,66.157 144.510,64.227 144.510 C 62.296 144.510,60.889 144.413,60.803 144.274 C 60.716 144.134,59.226 144.038,57.129 144.038 C 54.934 144.038,53.601 143.949,53.601 143.802 C 53.601 143.655,52.302 143.566,50.177 143.566 C 48.288 143.566,46.753 143.470,46.753 143.352 C 46.753 143.234,45.229 143.101,43.365 143.056 C 41.195 143.004,39.855 142.874,39.637 142.693 C 39.412 142.505,38.233 142.407,36.147 142.401 C 34.415 142.396,32.877 142.292,32.730 142.170 C 32.583 142.048,30.984 141.943,29.177 141.936 C 27.268 141.929,25.789 141.822,25.649 141.682 C 25.308 141.341,23.298 141.381,22.922 141.736 C 22.672 141.972,22.588 141.972,22.501 141.736 C 22.428 141.536,21.827 141.440,20.641 141.440 C 19.678 141.440,18.890 141.341,18.890 141.219 C 18.890 141.091,17.368 140.994,15.291 140.989 C 13.045 140.984,11.662 140.890,11.612 140.739 C 11.508 140.426,9.681 140.420,9.681 140.732 C 9.681 140.862,9.360 140.968,8.968 140.968 C 8.056 140.968,5.903 142.996,5.903 143.855 C 5.903 144.163,5.776 144.543,5.620 144.699 C 5.399 144.919,5.399 145.045,5.620 145.266 C 5.776 145.421,5.903 145.854,5.903 146.227 C 5.903 146.910,6.362 147.580,6.831 147.580 C 6.970 147.580,7.084 147.845,7.084 148.170 C 7.084 148.495,7.172 148.760,7.280 148.760 C 7.388 148.760,7.627 149.050,7.811 149.404 C 7.996 149.758,8.492 150.418,8.914 150.870 C 9.336 151.322,9.681 151.806,9.681 151.945 C 9.681 152.084,9.894 152.351,10.153 152.538 C 10.413 152.726,10.626 153.097,10.626 153.365 C 10.626 153.632,10.838 154.004,11.098 154.191 C 11.358 154.378,11.570 154.721,11.570 154.952 C 11.570 155.183,11.684 155.372,11.823 155.372 C 12.202 155.372,12.751 155.995,12.751 156.425 C 12.751 156.842,14.243 158.442,14.632 158.442 C 14.766 158.442,14.876 158.601,14.876 158.796 C 14.876 158.991,14.982 159.150,15.112 159.150 C 15.242 159.150,15.348 159.339,15.348 159.570 C 15.348 159.801,15.561 160.143,15.821 160.331 C 16.080 160.518,16.293 160.868,16.293 161.108 C 16.293 161.587,16.821 162.220,17.220 162.220 C 17.360 162.220,17.473 162.409,17.473 162.640 C 17.473 162.871,17.686 163.213,17.946 163.400 C 18.205 163.587,18.418 163.877,18.418 164.043 C 18.418 164.209,18.524 164.345,18.654 164.345 C 18.784 164.345,18.890 164.512,18.890 164.716 C 18.890 165.140,19.442 165.762,19.818 165.762 C 19.957 165.762,20.071 165.985,20.071 166.257 C 20.071 166.530,20.390 167.050,20.779 167.414 C 21.169 167.778,21.488 168.174,21.488 168.293 C 21.488 168.412,21.859 168.927,22.314 169.438 C 22.768 169.948,23.140 170.475,23.140 170.609 C 23.140 170.743,23.353 171.005,23.613 171.192 C 24.124 171.561,24.299 173.394,23.849 173.672 C 23.719 173.752,23.613 174.236,23.613 174.748 C 23.613 175.260,23.506 175.679,23.377 175.679 C 23.231 175.679,23.140 176.860,23.140 178.749 C 23.140 180.638,23.231 181.818,23.377 181.818 C 23.506 181.818,23.613 182.190,23.613 182.645 C 23.613 183.099,23.719 183.471,23.849 183.471 C 23.979 183.471,24.085 183.890,24.085 184.402 C 24.085 184.913,24.191 185.398,24.321 185.478 C 24.451 185.558,24.557 185.830,24.557 186.082 C 24.557 186.334,24.717 186.541,24.911 186.541 C 25.108 186.541,25.266 186.751,25.266 187.013 C 25.266 187.273,25.372 187.485,25.502 187.485 C 25.632 187.485,25.738 187.751,25.738 188.076 C 25.738 188.400,25.844 188.666,25.974 188.666 C 26.104 188.666,26.210 188.878,26.210 189.138 C 26.210 189.398,26.316 189.610,26.446 189.610 C 26.576 189.610,26.682 189.876,26.682 190.201 C 26.682 190.525,26.772 190.791,26.881 190.791 C 27.121 190.791,29.280 192.804,29.280 193.028 C 29.280 193.234,29.908 193.861,30.115 193.861 C 30.203 193.861,30.823 194.445,31.493 195.159 C 32.163 195.874,32.872 196.458,33.069 196.458 C 33.265 196.458,33.579 196.671,33.766 196.930 C 33.953 197.190,34.296 197.403,34.527 197.403 C 34.758 197.403,34.947 197.509,34.947 197.639 C 34.947 197.769,35.213 197.875,35.537 197.875 C 35.904 197.875,36.128 198.009,36.128 198.229 C 36.128 198.426,36.337 198.583,36.600 198.583 C 36.860 198.583,37.072 198.689,37.072 198.819 C 37.072 198.949,37.338 199.055,37.662 199.055 C 37.987 199.055,38.253 199.162,38.253 199.292 C 38.253 199.421,38.465 199.528,38.725 199.528 C 38.985 199.528,39.197 199.634,39.197 199.764 C 39.197 199.894,39.410 200.000,39.669 200.000 C 39.929 200.000,40.142 200.106,40.142 200.236 C 40.142 200.366,40.514 200.472,40.968 200.472 C 41.545 200.472,41.795 200.579,41.795 200.826 C 41.795 201.061,42.029 201.181,42.489 201.181 C 42.871 201.181,43.249 201.287,43.329 201.417 C 43.410 201.547,43.788 201.653,44.170 201.653 C 44.552 201.653,44.864 201.759,44.864 201.889 C 44.864 202.019,45.082 202.125,45.347 202.125 C 45.850 202.125,46.989 203.101,46.989 203.531 C 46.989 203.667,47.096 203.778,47.226 203.778 C 47.355 203.778,47.462 203.942,47.462 204.143 C 47.462 204.521,48.476 205.667,48.810 205.667 C 48.914 205.667,49.150 206.012,49.334 206.434 C 49.518 206.857,49.863 207.374,50.100 207.584 C 50.337 207.794,50.531 208.147,50.531 208.368 C 50.531 208.818,51.071 209.445,51.459 209.445 C 51.598 209.445,51.712 209.634,51.712 209.865 C 51.712 210.096,51.924 210.439,52.184 210.626 C 52.444 210.813,52.656 211.054,52.656 211.161 C 52.656 211.691,53.863 212.515,54.639 212.515 C 55.092 212.515,55.528 212.621,55.608 212.751 C 55.696 212.893,57.298 212.987,59.622 212.987 C 61.946 212.987,63.549 213.081,63.636 213.223 C 63.727 213.370,65.994 213.459,69.652 213.459 C 74.138 213.459,75.545 213.529,75.620 213.754 C 75.722 214.061,80.393 214.270,93.093 214.534 C 96.613 214.607,98.937 214.746,98.937 214.884 C 98.937 215.009,99.476 215.112,100.135 215.112 C 101.478 215.112,102.007 215.471,102.007 216.380 C 102.007 216.706,102.113 217.039,102.243 217.119 C 102.373 217.200,102.479 217.471,102.479 217.723 C 102.479 217.976,102.578 218.182,102.699 218.182 C 102.820 218.182,102.953 218.421,102.994 218.713 C 103.043 219.055,103.260 219.271,103.601 219.320 C 103.893 219.361,104.132 219.494,104.132 219.615 C 104.132 219.736,104.345 219.835,104.604 219.835 C 104.864 219.835,105.077 219.941,105.077 220.071 C 105.077 220.201,105.555 220.307,106.139 220.307 C 106.724 220.307,107.202 220.413,107.202 220.543 C 107.202 220.694,109.327 220.779,113.105 220.779 C 116.883 220.779,119.008 220.694,119.008 220.543 C 119.008 220.413,119.486 220.307,120.071 220.307 C 120.655 220.307,121.133 220.413,121.133 220.543 C 121.133 220.673,121.446 220.779,121.828 220.779 C 122.210 220.779,122.588 220.673,122.668 220.543 C 122.749 220.413,123.233 220.307,123.745 220.307 C 124.257 220.307,124.675 220.201,124.675 220.071 C 124.675 219.935,125.418 219.835,126.432 219.835 C 127.399 219.835,128.246 219.743,128.315 219.631 C 128.385 219.519,129.210 219.372,130.150 219.305 C 131.095 219.237,131.898 219.064,131.947 218.918 C 131.997 218.767,132.581 218.654,133.314 218.654 C 134.017 218.654,134.593 218.548,134.593 218.418 C 134.593 218.288,134.965 218.182,135.419 218.182 C 135.874 218.182,136.246 218.076,136.246 217.946 C 136.246 217.816,136.458 217.710,136.718 217.710 C 136.978 217.710,137.190 217.603,137.190 217.473 C 137.190 217.344,137.396 217.237,137.648 217.237 C 137.900 217.237,138.172 217.131,138.253 217.001 C 138.448 216.685,145.613 216.685,145.809 217.001 C 145.900 217.148,148.133 217.237,151.726 217.237 C 155.416 217.237,157.497 217.322,157.497 217.473 C 157.497 217.603,157.816 217.710,158.205 217.710 C 158.886 217.710,158.914 217.751,158.914 218.755 C 158.914 219.370,159.060 219.947,159.268 220.155 C 159.463 220.350,159.622 220.676,159.622 220.880 C 159.622 221.084,159.728 221.251,159.858 221.251 C 159.988 221.251,160.094 221.517,160.094 221.842 C 160.094 222.166,160.201 222.432,160.331 222.432 C 160.460 222.432,160.567 222.645,160.567 222.904 C 160.567 223.219,160.724 223.377,161.039 223.377 C 161.299 223.377,161.511 223.483,161.511 223.613 C 161.511 223.743,161.777 223.849,162.102 223.849 C 162.469 223.849,162.692 223.983,162.692 224.203 C 162.692 224.400,162.902 224.557,163.164 224.557 C 163.424 224.557,163.636 224.664,163.636 224.793 C 163.636 224.923,164.008 225.030,164.463 225.030 C 164.917 225.030,165.289 225.136,165.289 225.266 C 165.289 225.396,165.608 225.502,165.998 225.502 C 166.387 225.502,166.706 225.608,166.706 225.738 C 166.706 225.884,167.926 225.974,169.894 225.974 C 171.861 225.974,173.081 225.884,173.081 225.738 C 173.081 225.608,173.606 225.502,174.248 225.502 C 174.890 225.502,175.481 225.396,175.561 225.266 C 175.641 225.136,176.019 225.030,176.401 225.030 C 176.783 225.030,177.096 224.923,177.096 224.793 C 177.096 224.664,177.418 224.557,177.811 224.557 C 178.230 224.557,178.584 224.410,178.663 224.203 C 178.741 224.001,179.093 223.849,179.482 223.849 C 179.858 223.849,180.165 223.743,180.165 223.613 C 180.165 223.483,180.431 223.377,180.756 223.377 C 181.080 223.377,181.346 223.270,181.346 223.140 C 181.346 223.011,181.558 222.904,181.818 222.904 C 182.078 222.904,182.290 222.798,182.290 222.668 C 182.290 222.538,182.511 222.432,182.780 222.432 C 183.049 222.432,183.402 222.299,183.564 222.137 C 183.727 221.975,184.269 221.523,184.770 221.133 C 185.270 220.744,186.074 220.027,186.555 219.540 L 187.430 218.654 189.917 218.654 C 191.697 218.654,192.432 218.738,192.503 218.949 C 192.577 219.172,194.027 219.262,198.426 219.315 C 201.899 219.357,204.250 219.477,204.250 219.610 C 204.250 219.746,206.581 219.835,210.153 219.835 C 213.932 219.835,216.057 219.920,216.057 220.071 C 216.057 220.222,218.142 220.307,221.842 220.307 C 225.541 220.307,227.627 220.392,227.627 220.543 C 227.627 220.694,229.752 220.779,233.530 220.779 C 237.308 220.779,239.433 220.864,239.433 221.015 C 239.433 221.166,241.513 221.251,245.199 221.251 C 249.601 221.251,250.987 221.321,251.062 221.547 C 251.136 221.769,252.577 221.860,256.926 221.915 C 260.097 221.956,262.793 222.089,262.916 222.211 C 263.043 222.336,265.572 222.432,268.746 222.432 C 272.229 222.432,274.408 222.522,274.498 222.668 C 274.589 222.815,276.823 222.904,280.415 222.904 C 284.105 222.904,286.187 222.990,286.187 223.140 C 286.187 223.291,288.268 223.377,291.958 223.377 C 295.550 223.377,297.784 223.466,297.875 223.613 C 297.966 223.760,300.193 223.849,303.772 223.849 C 308.164 223.849,309.547 223.919,309.622 224.144 C 309.696 224.367,311.138 224.458,315.486 224.515 C 318.657 224.557,321.352 224.690,321.476 224.810 C 321.601 224.933,324.180 225.030,327.320 225.030 C 330.909 225.030,332.940 225.115,332.940 225.266 C 332.940 225.417,335.065 225.502,338.843 225.502 C 342.621 225.502,344.746 225.587,344.746 225.738 C 344.746 225.880,345.691 225.974,347.107 225.974 C 348.524 225.974,349.469 225.880,349.469 225.738 C 349.469 225.608,349.787 225.502,350.177 225.502 C 350.567 225.502,350.885 225.396,350.885 225.266 C 350.885 225.136,351.025 225.030,351.195 225.030 C 351.530 225.030,353.011 223.676,353.011 223.370 C 353.011 223.267,353.595 222.584,354.309 221.852 C 355.024 221.121,355.608 220.425,355.608 220.307 C 355.608 220.189,356.299 219.388,357.143 218.527 C 357.987 217.666,358.678 216.758,358.678 216.509 C 358.678 216.260,358.792 216.057,358.932 216.057 C 359.072 216.057,359.577 215.643,360.054 215.138 C 361.400 213.712,361.747 213.246,361.747 212.866 C 361.747 212.673,361.858 212.515,361.994 212.515 C 362.286 212.515,363.400 211.442,363.400 211.161 C 363.400 211.054,363.613 210.813,363.872 210.626 C 364.132 210.439,364.345 210.096,364.345 209.865 C 364.345 209.634,364.459 209.445,364.598 209.445 C 364.869 209.445,365.525 208.865,365.525 208.626 C 365.525 208.547,366.057 207.959,366.706 207.320 C 367.355 206.681,367.887 206.055,367.887 205.930 C 367.887 205.805,368.524 205.049,369.303 204.250 C 370.083 203.451,370.720 202.689,370.720 202.556 C 370.720 202.423,371.039 202.017,371.429 201.653 C 371.818 201.289,372.137 200.874,372.137 200.732 C 372.137 200.589,372.248 200.472,372.384 200.472 C 372.763 200.472,373.790 199.359,373.790 198.948 C 373.790 198.747,373.896 198.583,374.026 198.583 C 374.156 198.583,374.262 198.469,374.262 198.330 C 374.262 198.059,374.842 197.403,375.082 197.403 C 375.348 197.403,376.264 196.350,376.623 195.632 C 377.002 194.875,377.442 194.333,377.680 194.333 C 377.924 194.333,378.985 193.190,378.985 192.927 C 378.985 192.791,379.091 192.680,379.221 192.680 C 379.351 192.680,379.457 192.513,379.457 192.309 C 379.457 191.941,379.992 191.263,380.283 191.263 C 380.476 191.263,381.110 190.636,381.110 190.446 C 381.110 190.202,382.733 188.666,382.991 188.666 C 383.125 188.666,383.235 188.445,383.235 188.175 C 383.235 187.905,383.660 187.276,384.179 186.777 C 384.699 186.278,385.124 185.766,385.124 185.639 C 385.124 185.513,385.974 184.550,387.013 183.500 C 388.052 182.450,388.902 181.477,388.902 181.339 C 388.902 181.201,389.141 180.844,389.433 180.545 C 389.726 180.246,390.283 179.593,390.673 179.094 C 391.063 178.594,391.620 177.945,391.913 177.651 C 392.205 177.358,392.444 177.052,392.444 176.971 C 392.444 176.779,393.077 176.151,393.270 176.151 C 393.678 176.151,394.097 175.389,394.097 174.647 C 394.097 174.191,394.203 173.752,394.333 173.672 C 394.463 173.592,394.569 173.113,394.569 172.609 C 394.569 172.105,394.463 171.627,394.333 171.547 C 394.203 171.466,394.097 171.194,394.097 170.942 C 394.097 170.690,393.991 170.484,393.861 170.484 C 393.731 170.484,393.625 170.322,393.625 170.124 C 393.625 169.926,393.359 169.663,393.034 169.540 C 392.710 169.416,392.444 169.206,392.444 169.073 C 392.444 168.940,392.238 168.831,391.986 168.831 C 391.734 168.831,391.462 168.725,391.381 168.595 C 391.301 168.465,390.823 168.359,390.319 168.359 C 389.815 168.359,389.336 168.253,389.256 168.123 C 389.169 167.982,387.680 167.887,385.582 167.887 C 383.388 167.887,382.054 167.797,382.054 167.651 C 382.054 167.504,380.756 167.414,378.630 167.414 C 376.505 167.414,375.207 167.325,375.207 167.178 C 375.207 166.823,372.438 166.879,372.293 167.237 C 372.198 167.473,372.171 167.473,372.156 167.237 C 372.142 167.027,371.588 166.942,370.231 166.942 C 368.852 166.942,368.227 166.844,367.971 166.588 C 367.496 166.113,366.127 166.138,365.635 166.631 C 365.263 167.002,365.224 167.002,365.016 166.631 C 364.855 166.343,364.475 166.234,363.639 166.234 C 363.003 166.234,362.418 166.128,362.338 165.998 C 362.249 165.855,360.564 165.762,358.073 165.762 C 355.485 165.762,353.955 165.674,353.955 165.525 C 353.955 165.188,352.155 165.233,351.560 165.584 C 351.160 165.821,351.039 165.821,350.953 165.584 C 350.881 165.385,350.284 165.289,349.109 165.289 C 348.153 165.289,347.306 165.183,347.226 165.053 C 347.019 164.719,345.309 164.760,344.712 165.112 C 344.312 165.348,344.191 165.348,344.105 165.112 C 344.032 164.910,343.413 164.817,342.143 164.817 C 341.123 164.817,340.222 164.711,340.142 164.581 C 340.061 164.451,339.577 164.345,339.065 164.345 C 338.553 164.345,338.135 164.451,338.135 164.581 C 338.135 164.711,337.869 164.817,337.544 164.817 C 337.220 164.817,336.954 164.711,336.954 164.581 C 336.954 164.443,336.167 164.345,335.065 164.345 C 333.963 164.345,333.176 164.246,333.176 164.109 C 333.176 163.979,332.751 163.872,332.231 163.872 C 331.712 163.872,331.287 163.979,331.287 164.109 C 331.287 164.477,330.198 164.386,329.870 163.991 C 329.664 163.743,329.119 163.636,328.055 163.636 C 326.256 163.636,325.620 163.359,325.620 162.577 C 325.620 162.006,326.064 160.790,326.354 160.567 C 326.564 160.404,326.780 158.759,326.949 156.021 C 327.027 154.755,327.185 153.719,327.300 153.719 C 327.415 153.719,327.509 153.028,327.509 152.184 C 327.509 150.977,327.585 150.649,327.863 150.649 C 328.098 150.649,328.217 150.415,328.217 149.955 C 328.217 149.573,328.323 149.195,328.453 149.115 C 328.583 149.034,328.689 148.184,328.689 147.226 C 328.689 146.267,328.796 145.417,328.926 145.336 C 329.251 145.135,329.251 112.952,328.926 112.751 C 328.796 112.671,328.689 111.821,328.689 110.862 C 328.689 109.903,328.583 109.053,328.453 108.973 C 328.323 108.893,328.217 108.461,328.217 108.014 C 328.217 107.450,328.109 107.202,327.863 107.202 C 327.585 107.202,327.509 106.874,327.509 105.667 C 327.509 104.823,327.410 104.132,327.289 104.132 C 327.169 104.132,327.016 103.202,326.950 102.066 C 326.788 99.276,326.560 97.757,326.304 97.757 C 326.188 97.757,326.092 97.551,326.092 97.298 C 326.092 97.046,325.986 96.774,325.856 96.694 C 325.726 96.614,325.620 96.130,325.620 95.618 C 325.620 94.948,325.521 94.687,325.266 94.687 C 325.030 94.687,324.911 94.451,324.911 93.979 C 324.911 93.589,324.805 93.270,324.675 93.270 C 324.545 93.270,324.439 92.898,324.439 92.444 C 324.439 91.989,324.333 91.617,324.203 91.617 C 324.073 91.617,323.967 91.405,323.967 91.145 C 323.967 90.885,323.884 90.673,323.783 90.673 C 323.605 90.673,323.022 87.502,323.022 86.536 C 323.022 86.275,322.757 85.863,322.432 85.619 C 321.992 85.289,321.842 84.958,321.842 84.317 C 321.842 83.728,321.693 83.350,321.370 83.117 C 321.074 82.904,320.897 82.506,320.897 82.054 C 320.897 81.603,320.720 81.204,320.425 80.992 C 320.146 80.790,319.953 80.380,319.953 79.988 C 319.953 79.616,319.797 79.264,319.599 79.188 C 319.404 79.113,319.244 78.851,319.244 78.605 C 319.244 78.359,319.150 78.158,319.034 78.158 C 318.834 78.158,318.693 77.575,318.379 75.444 C 318.302 74.925,318.040 74.329,317.797 74.118 C 317.554 73.907,317.355 73.561,317.355 73.349 C 317.355 73.137,317.242 72.963,317.102 72.963 C 316.703 72.963,316.175 72.331,316.175 71.852 C 316.175 71.611,315.962 71.262,315.702 71.074 C 315.443 70.887,315.230 70.551,315.230 70.328 C 315.230 70.104,315.124 69.856,314.994 69.776 C 314.864 69.695,314.758 69.211,314.758 68.699 C 314.758 68.187,314.644 67.769,314.505 67.769 C 314.105 67.769,313.577 67.136,313.577 66.657 C 313.577 66.417,313.365 66.067,313.105 65.880 C 312.845 65.692,312.633 65.389,312.633 65.205 C 312.633 65.021,312.367 64.625,312.043 64.324 C 311.718 64.023,311.452 63.613,311.452 63.412 C 311.452 63.211,311.346 63.046,311.216 63.046 C 311.086 63.046,310.980 62.834,310.980 62.574 C 310.980 62.314,310.874 62.102,310.744 62.102 C 310.614 62.102,310.508 61.942,310.508 61.747 C 310.508 61.553,310.401 61.393,310.272 61.393 C 310.142 61.393,310.035 61.226,310.035 61.022 C 310.035 60.598,309.484 59.976,309.108 59.976 C 308.969 59.976,308.855 59.734,308.855 59.438 C 308.855 59.142,308.642 58.747,308.383 58.560 C 308.105 58.360,307.910 57.948,307.910 57.563 C 307.910 57.202,307.822 56.907,307.714 56.907 C 307.606 56.907,307.376 56.641,307.202 56.316 C 307.028 55.992,306.793 55.726,306.679 55.726 C 306.233 55.726,305.313 54.534,305.313 53.955 C 305.313 53.351,304.386 52.184,303.907 52.184 C 303.771 52.184,303.660 52.078,303.660 51.948 C 303.660 51.818,303.447 51.712,303.188 51.712 C 302.841 51.712,302.715 51.555,302.715 51.122 C 302.715 50.797,302.609 50.531,302.479 50.531 C 302.349 50.531,302.243 50.364,302.243 50.160 C 302.243 49.792,301.708 49.115,301.417 49.115 C 301.216 49.115,300.590 48.484,300.590 48.282 C 300.590 48.195,300.272 47.826,299.882 47.462 C 299.492 47.098,299.174 46.630,299.174 46.422 C 299.174 46.215,299.014 46.045,298.819 46.045 C 298.625 46.045,298.465 45.936,298.465 45.803 C 298.465 45.487,296.426 43.447,296.110 43.447 C 295.977 43.447,295.868 43.338,295.868 43.205 C 295.868 42.889,293.828 40.850,293.513 40.850 C 293.379 40.850,293.270 40.714,293.270 40.548 C 293.270 40.382,293.058 40.093,292.798 39.906 C 292.538 39.718,292.326 39.400,292.326 39.197 C 292.326 38.995,292.113 38.676,291.854 38.489 C 291.594 38.302,291.381 38.012,291.381 37.846 C 291.381 37.680,291.265 37.544,291.122 37.544 C 290.979 37.544,290.565 37.226,290.201 36.836 C 289.837 36.446,289.423 36.128,289.282 36.128 C 289.141 36.128,288.173 35.277,287.131 34.238 C 286.089 33.200,285.124 32.349,284.985 32.349 C 284.846 32.349,284.324 31.924,283.825 31.405 C 283.326 30.885,282.803 30.460,282.663 30.460 C 282.523 30.460,282.409 30.349,282.409 30.214 C 282.409 29.734,281.241 28.808,280.638 28.808 C 280.034 28.808,278.867 27.881,278.867 27.402 C 278.867 27.266,278.654 27.155,278.394 27.155 C 278.135 27.155,277.922 27.048,277.922 26.919 C 277.922 26.789,277.805 26.682,277.663 26.682 C 277.520 26.682,277.105 26.364,276.741 25.974 C 276.282 25.482,275.857 25.266,275.348 25.266 C 274.946 25.266,274.616 25.155,274.616 25.019 C 274.616 24.640,273.503 23.613,273.092 23.613 C 272.891 23.613,272.727 23.506,272.727 23.377 C 272.727 23.247,272.613 23.140,272.474 23.140 C 272.199 23.140,271.547 22.559,271.547 22.314 C 271.547 21.927,270.803 21.488,270.147 21.488 C 269.748 21.488,269.421 21.381,269.421 21.251 C 269.421 21.122,269.232 21.015,269.001 21.015 C 268.770 21.015,268.428 20.803,268.241 20.543 C 268.054 20.283,267.658 20.071,267.362 20.071 C 267.066 20.071,266.824 19.957,266.824 19.818 C 266.824 19.462,266.211 18.890,265.831 18.890 C 265.655 18.890,265.358 18.678,265.171 18.418 C 264.952 18.114,264.560 17.946,264.070 17.946 C 263.652 17.946,263.244 17.839,263.164 17.710 C 263.084 17.580,262.706 17.473,262.324 17.473 C 261.942 17.473,261.629 17.360,261.629 17.220 C 261.629 16.865,261.017 16.293,260.636 16.293 C 260.460 16.293,260.164 16.080,259.976 15.821 C 259.764 15.526,259.365 15.348,258.918 15.348 C 258.427 15.348,258.059 15.161,257.756 14.758 C 257.479 14.389,257.079 14.168,256.690 14.168 C 256.337 14.168,255.919 13.962,255.726 13.695 C 255.491 13.369,255.115 13.223,254.507 13.223 C 254.024 13.223,253.563 13.117,253.483 12.987 C 253.403 12.857,253.063 12.751,252.729 12.751 C 252.383 12.751,251.884 12.496,251.573 12.161 C 251.272 11.836,250.779 11.570,250.477 11.570 C 250.174 11.570,249.774 11.358,249.587 11.098 C 249.398 10.836,248.976 10.626,248.637 10.626 C 247.962 10.626,246.758 10.135,246.755 9.858 C 246.754 9.761,246.393 9.681,245.954 9.681 C 245.514 9.681,244.850 9.522,244.478 9.328 C 244.106 9.134,243.568 8.975,243.281 8.974 C 242.648 8.973,241.558 8.500,241.558 8.227 C 241.558 8.118,241.140 8.028,240.628 8.028 C 240.116 8.028,239.632 7.922,239.551 7.792 C 239.471 7.662,239.199 7.556,238.947 7.556 C 238.695 7.556,238.489 7.450,238.489 7.320 C 238.489 7.190,238.123 7.084,237.676 7.084 C 237.229 7.084,236.798 6.978,236.718 6.848 C 236.638 6.718,236.373 6.612,236.130 6.612 C 235.888 6.612,235.543 6.465,235.364 6.287 C 235.016 5.939,234.026 5.761,231.105 5.521 C 230.096 5.438,229.213 5.277,229.143 5.164 C 229.073 5.051,228.331 4.959,227.495 4.959 C 226.638 4.959,225.974 4.856,225.974 4.723 C 225.974 4.593,225.602 4.486,225.148 4.486 C 224.693 4.486,224.321 4.395,224.321 4.284 C 224.321 4.173,223.457 4.010,222.401 3.922 C 221.346 3.834,220.290 3.659,220.056 3.534 C 219.493 3.232,187.270 3.239,186.754 3.541 M213.459 7.551 C 214.303 7.669,216.269 7.930,217.828 8.130 C 224.532 8.993,226.231 9.312,233.058 10.992 C 271.977 20.571,304.782 50.274,317.930 87.839 C 319.535 92.424,319.691 92.907,320.517 95.868 C 322.500 102.971,323.108 106.203,324.782 118.536 C 325.301 122.356,325.301 135.730,324.783 139.551 C 323.670 147.754,323.437 149.339,322.996 151.712 C 322.241 155.769,320.095 164.161,319.256 166.331 C 318.819 167.462,318.816 167.462,328.571 168.129 C 343.511 169.150,357.515 170.231,357.759 170.382 C 357.904 170.471,357.832 170.771,357.574 171.155 C 356.945 172.093,357.045 174.957,357.818 178.096 C 359.280 184.037,357.262 188.964,352.656 190.700 C 351.056 191.304,340.207 191.271,337.831 190.656 C 333.892 189.636,329.437 186.125,329.405 184.016 C 329.401 183.732,329.305 183.442,329.192 183.372 C 329.079 183.302,328.925 182.738,328.851 182.118 C 328.684 180.744,328.329 178.405,327.998 176.509 C 327.447 173.348,325.801 171.539,323.507 171.570 C 320.031 171.618,319.010 174.124,319.009 182.610 C 319.008 189.288,317.341 191.027,310.944 191.027 C 306.327 191.027,304.526 190.035,303.226 186.777 C 302.954 186.093,302.905 183.147,302.945 169.734 C 302.997 152.749,303.005 152.905,301.944 150.697 C 300.269 147.208,295.004 147.710,293.125 151.537 C 292.333 153.149,292.068 183.709,292.808 188.076 C 293.794 193.895,295.134 196.855,297.807 199.116 C 299.799 200.800,301.005 201.364,304.195 202.101 C 305.683 202.445,313.178 202.440,314.269 202.094 C 317.317 201.128,320.208 198.945,321.752 196.443 C 322.757 194.815,322.827 194.789,323.461 195.809 C 325.260 198.706,328.920 200.721,334.891 202.101 C 336.665 202.511,351.713 202.450,353.294 202.026 C 355.766 201.363,357.626 200.690,358.255 200.231 C 358.607 199.974,358.960 199.764,359.039 199.764 C 360.275 199.764,365.762 193.730,365.762 192.371 C 365.762 192.203,365.858 191.965,365.977 191.842 C 366.323 191.481,367.360 187.729,367.540 186.187 C 368.191 180.601,366.787 175.218,363.867 172.108 C 363.221 171.419,362.692 170.826,362.692 170.788 C 362.692 170.647,365.430 170.729,368.082 170.950 C 369.598 171.077,374.504 171.449,378.985 171.778 C 390.257 172.605,390.123 172.591,390.037 172.977 C 389.972 173.271,385.401 178.706,369.776 197.068 C 366.983 200.349,362.096 206.116,358.914 209.883 C 353.137 216.722,352.544 217.340,352.926 216.116 C 354.515 211.025,351.012 206.253,345.691 206.260 C 336.066 206.273,335.858 220.504,345.475 220.974 C 346.937 221.046,347.492 220.965,348.493 220.534 C 349.985 219.892,350.279 220.078,349.308 221.049 L 348.580 221.776 342.590 221.498 C 336.397 221.210,330.382 220.944,321.015 220.544 C 306.979 219.944,298.952 219.588,286.423 219.009 C 278.377 218.637,271.780 218.344,262.456 217.945 C 257.301 217.724,251.301 217.462,241.086 217.011 C 238.164 216.883,232.214 216.613,227.863 216.412 C 223.512 216.211,217.509 215.941,214.522 215.812 C 211.535 215.683,206.647 215.471,203.660 215.340 C 193.975 214.915,187.856 214.660,187.072 214.650 C 186.071 214.637,186.104 214.354,187.281 212.828 C 188.326 211.474,188.845 210.627,189.612 209.032 C 190.171 207.868,190.111 207.886,191.388 208.504 C 193.486 209.519,194.773 209.681,200.752 209.681 C 204.007 209.681,206.854 209.574,207.411 209.430 C 209.651 208.850,210.236 208.656,212.456 207.753 C 212.878 207.581,213.223 207.360,213.223 207.262 C 213.223 207.164,213.343 207.084,213.490 207.084 C 213.791 207.084,215.700 205.752,216.798 204.776 C 220.806 201.213,223.387 192.113,221.936 186.659 C 221.798 186.139,221.632 185.396,221.566 185.006 C 220.821 180.550,215.738 176.096,213.044 177.537 C 211.736 178.237,211.408 182.400,212.418 185.478 C 213.816 189.739,211.832 195.849,208.546 197.402 C 208.196 197.567,207.655 197.821,207.344 197.965 C 206.420 198.395,196.707 198.320,195.845 197.876 C 194.086 196.972,193.313 195.265,192.902 191.381 C 191.715 180.163,191.031 178.651,187.139 178.648 C 181.655 178.643,180.532 180.751,181.550 189.138 C 182.020 193.010,182.144 197.744,181.818 199.389 C 181.526 200.860,181.447 201.077,180.186 203.843 C 179.785 204.723,179.457 205.488,179.457 205.542 C 179.457 205.670,177.219 208.670,176.546 209.445 C 175.257 210.928,173.456 212.160,170.666 213.468 C 169.992 213.784,167.234 213.738,155.844 213.222 C 153.052 213.095,148.111 212.885,144.864 212.755 C 137.182 212.448,136.988 212.417,136.594 211.476 C 135.909 209.836,133.764 208.813,129.870 208.270 C 128.766 208.116,127.217 207.892,126.427 207.773 C 119.773 206.768,109.566 208.120,106.905 210.359 C 106.263 210.899,105.983 210.972,104.737 210.922 C 102.489 210.832,92.264 210.393,86.423 210.137 C 79.762 209.844,73.063 209.558,64.585 209.205 C 55.384 208.821,56.542 209.234,53.653 205.307 C 49.008 198.993,48.798 198.627,50.000 198.926 C 50.850 199.138,52.741 199.453,55.372 199.821 C 58.102 200.203,70.869 200.197,73.790 199.812 C 76.307 199.481,78.564 199.129,79.221 198.964 C 79.481 198.900,80.862 198.568,82.290 198.228 C 83.719 197.888,85.100 197.521,85.360 197.412 C 85.620 197.303,86.204 197.086,86.659 196.930 C 87.113 196.774,87.698 196.561,87.957 196.457 C 88.217 196.353,89.067 196.026,89.847 195.731 C 92.938 194.558,98.916 191.073,99.525 190.088 C 99.838 189.581,100.317 189.891,101.144 191.137 C 104.153 195.669,108.415 198.543,114.286 199.999 C 115.398 200.275,121.616 200.209,122.904 199.907 C 127.010 198.946,129.143 197.751,131.995 194.814 C 138.742 187.866,138.695 173.522,131.910 168.854 C 128.002 166.165,125.540 169.284,126.989 175.089 C 127.649 177.730,127.765 178.740,127.620 180.578 C 127.536 181.649,127.370 182.585,127.252 182.658 C 127.133 182.731,127.037 182.945,127.037 183.133 C 127.037 183.322,126.818 183.941,126.551 184.509 C 123.608 190.770,115.049 190.441,110.609 183.897 C 110.229 183.338,109.865 182.828,109.800 182.763 C 109.111 182.078,106.713 176.876,105.554 173.554 C 105.395 173.099,105.180 172.515,105.077 172.255 C 104.973 171.995,104.761 171.411,104.604 170.956 C 104.448 170.502,104.230 169.917,104.120 169.658 C 104.010 169.398,103.388 167.591,102.739 165.643 C 98.114 151.768,97.679 151.088,93.388 151.027 C 88.241 150.954,87.104 154.846,90.120 162.220 C 95.778 176.053,95.891 179.949,90.740 183.632 C 82.239 189.711,64.295 191.678,51.712 187.911 C 51.257 187.775,50.701 187.570,50.475 187.456 C 50.250 187.342,49.903 187.249,49.705 187.249 C 49.507 187.249,49.160 187.155,48.934 187.041 C 48.709 186.926,48.259 186.724,47.934 186.592 C 38.785 182.870,35.279 177.674,39.036 173.406 C 39.828 172.507,42.899 170.248,43.331 170.248 C 43.394 170.248,44.251 169.876,45.235 169.421 C 46.219 168.967,47.169 168.595,47.347 168.595 C 47.525 168.595,47.728 168.501,47.799 168.386 C 47.870 168.271,48.222 168.118,48.580 168.046 C 48.939 167.975,49.684 167.803,50.236 167.665 C 52.805 167.024,53.360 166.897,55.018 166.575 C 58.696 165.862,61.816 165.489,67.651 165.064 C 72.841 164.686,73.380 164.586,74.156 163.862 C 75.971 162.166,74.502 158.975,71.510 158.116 C 67.961 157.098,55.863 158.080,49.115 159.935 C 43.739 161.413,43.691 161.428,40.968 162.595 C 39.929 163.040,39.003 163.403,38.910 163.402 C 37.919 163.391,32.598 167.567,30.764 169.797 C 29.125 171.790,29.320 171.798,27.811 169.674 C 25.807 166.853,14.149 150.794,11.649 147.410 C 9.658 144.715,9.297 144.849,16.883 145.461 C 18.442 145.586,23.542 145.955,28.217 146.279 C 32.893 146.604,38.152 146.976,39.906 147.107 C 41.659 147.237,46.068 147.556,49.705 147.814 C 56.493 148.297,60.796 148.614,65.762 148.997 C 68.762 149.228,72.739 149.517,79.062 149.963 C 83.770 150.295,83.511 150.475,83.035 147.187 C 82.830 145.780,82.599 143.884,82.520 142.975 C 82.441 142.066,82.198 140.844,81.979 140.260 C 81.380 138.657,81.380 119.431,81.979 117.828 C 82.198 117.243,82.441 116.021,82.519 115.112 C 82.951 110.113,84.332 103.025,86.270 95.868 C 86.464 95.153,87.150 92.961,87.796 90.995 C 99.893 54.161,128.829 25.313,165.762 13.268 C 174.214 10.511,180.870 9.119,193.034 7.566 C 195.064 7.306,211.631 7.294,213.459 7.551 M139.079 51.711 C 135.948 52.216,129.783 54.958,126.561 57.278 C 116.922 64.218,113.722 73.438,117.028 84.749 C 117.119 85.062,117.549 86.047,117.983 86.939 C 118.417 87.831,118.772 88.622,118.772 88.698 C 118.772 88.774,119.250 89.520,119.835 90.356 C 120.419 91.192,120.897 91.937,120.897 92.011 C 120.897 92.085,121.668 92.940,122.609 93.909 C 126.113 97.518,132.065 100.850,136.718 101.808 C 137.302 101.928,138.365 102.150,139.079 102.301 C 140.792 102.664,150.118 102.664,151.830 102.301 C 152.544 102.150,153.607 101.931,154.191 101.815 C 156.771 101.303,163.170 98.564,164.346 97.469 C 164.594 97.238,164.897 97.048,165.018 97.048 C 166.254 97.048,171.678 90.167,173.021 86.895 C 174.245 83.914,174.257 76.854,173.040 75.455 C 172.933 75.331,172.845 75.036,172.845 74.799 C 172.845 74.071,168.876 70.334,167.288 69.567 C 165.249 68.582,165.308 68.604,162.102 67.676 C 160.110 67.100,156.298 66.352,155.354 66.352 C 153.752 66.352,154.943 65.573,161.688 62.207 C 172.003 57.060,173.162 56.187,172.492 54.076 C 172.049 52.680,165.813 52.375,163.344 53.629 C 163.119 53.743,162.785 53.837,162.602 53.837 C 161.931 53.837,155.831 56.622,153.129 58.162 C 152.349 58.606,151.021 59.368,150.177 59.856 C 149.333 60.343,148.270 60.953,147.816 61.209 C 144.435 63.118,141.200 66.408,140.846 68.299 C 140.295 71.234,142.577 72.606,148.996 73.200 C 157.957 74.031,161.414 75.119,163.065 77.627 C 163.775 78.706,163.650 81.785,162.845 83.061 C 162.501 83.606,162.220 84.119,162.220 84.201 C 162.220 84.420,159.098 87.603,158.883 87.603 C 158.783 87.603,158.244 87.906,157.686 88.276 C 155.799 89.526,153.139 90.610,149.705 91.527 C 147.532 92.108,141.167 92.098,139.315 91.511 C 136.999 90.777,134.646 89.825,134.357 89.504 C 134.292 89.432,133.942 89.221,133.580 89.034 C 132.120 88.281,129.587 85.437,128.239 83.038 C 126.925 80.697,126.175 76.079,126.780 74.043 C 127.832 70.496,128.834 68.428,130.481 66.407 C 131.055 65.702,131.605 65.002,131.701 64.851 C 132.556 63.522,136.586 60.755,140.968 58.489 C 146.827 55.459,148.264 54.006,147.022 52.371 C 146.370 51.512,142.366 51.180,139.079 51.711 M221.259 62.842 C 218.452 64.717,217.484 67.020,217.477 71.836 C 217.472 75.337,219.108 79.825,220.716 80.725 C 221.009 80.889,221.083 81.263,221.043 82.374 C 220.902 86.280,223.985 91.439,227.484 93.151 C 231.033 94.887,234.417 93.839,237.339 90.097 C 239.034 87.927,239.658 88.593,239.350 92.241 C 238.960 96.855,237.151 100.226,233.842 102.507 C 232.884 103.168,232.769 103.188,229.914 103.188 C 226.528 103.188,226.691 103.316,226.686 100.649 C 226.683 99.232,226.011 98.427,225.701 99.469 C 225.329 100.716,225.885 110.390,226.328 110.390 C 226.750 110.390,226.808 110.209,226.869 108.698 C 226.972 106.180,225.830 106.386,240.173 106.307 L 252.647 106.238 252.501 102.883 C 252.421 101.038,252.256 99.401,252.135 99.247 C 251.673 98.660,251.294 99.211,251.192 100.614 C 251.009 103.149,251.314 103.059,242.674 103.131 L 235.301 103.193 236.009 102.589 C 239.120 99.937,241.295 96.239,241.316 93.566 C 241.324 92.582,241.802 92.561,242.806 93.498 C 247.362 97.757,255.349 95.659,256.894 89.798 C 257.038 89.252,257.404 88.508,257.707 88.145 C 258.820 86.814,259.413 85.291,260.124 81.936 C 263.592 65.564,245.596 55.264,238.568 69.599 C 237.318 72.149,237.275 72.168,236.452 70.543 C 233.270 64.262,230.255 61.865,225.537 61.865 L 222.722 61.865 221.259 62.842 M229.804 67.406 C 233.002 68.369,234.657 70.167,236.012 74.151 C 237.066 77.251,236.785 78.049,235.135 76.637 C 232.556 74.430,228.460 73.962,225.546 75.543 C 224.179 76.284,221.960 78.367,221.960 78.909 C 221.960 79.586,221.144 78.849,220.868 77.922 C 218.751 70.835,223.323 65.456,229.804 67.406 M249.941 68.374 C 255.641 69.373,259.583 76.716,257.992 83.369 C 257.390 85.887,257.188 86.005,256.455 84.270 C 252.801 75.621,244.926 73.837,240.605 80.680 C 239.267 82.798,238.878 82.471,238.763 79.132 L 238.683 76.816 239.751 74.690 C 241.784 70.641,245.813 67.625,248.524 68.122 C 248.784 68.170,249.421 68.283,249.941 68.374 M184.298 81.912 C 181.615 82.598,180.192 84.629,179.810 88.312 C 179.422 92.069,180.410 129.485,180.961 131.877 C 182.448 138.327,185.742 136.954,187.853 129.006 C 189.914 121.247,191.140 87.772,189.494 84.176 C 188.682 82.401,186.353 81.386,184.298 81.912 M137.426 114.509 C 136.207 114.758,134.262 115.655,131.995 117.012 C 130.891 117.673,129.381 118.547,128.638 118.953 C 127.896 119.359,126.727 120.044,126.041 120.474 C 125.355 120.904,124.475 121.413,124.085 121.606 C 123.695 121.798,122.824 122.302,122.148 122.725 C 121.473 123.148,120.854 123.495,120.774 123.495 C 120.694 123.495,120.165 123.813,119.599 124.203 C 119.032 124.593,118.517 124.911,118.454 124.911 C 118.391 124.911,117.530 125.390,116.542 125.974 C 115.553 126.558,114.695 127.037,114.636 127.037 C 114.576 127.037,113.808 127.493,112.930 128.051 C 112.052 128.610,110.962 129.248,110.508 129.471 C 110.053 129.693,109.256 130.134,108.737 130.449 C 108.217 130.764,107.314 131.276,106.730 131.586 C 105.626 132.171,104.830 132.620,102.243 134.118 C 101.399 134.606,99.729 135.509,98.532 136.124 C 97.335 136.738,96.233 137.389,96.083 137.570 C 95.933 137.751,95.709 137.898,95.585 137.898 C 94.641 137.898,89.387 142.894,88.582 144.556 C 86.705 148.435,90.214 150.526,95.632 148.755 C 95.956 148.649,96.526 148.496,96.897 148.414 C 97.269 148.333,98.066 148.048,98.668 147.781 C 99.271 147.515,99.976 147.212,100.236 147.109 C 102.264 146.302,105.333 144.648,110.349 141.660 C 115.311 138.703,115.157 138.800,118.745 136.364 C 120.466 135.195,122.121 134.079,122.423 133.884 C 123.315 133.308,126.832 130.782,127.998 129.879 C 128.591 129.420,129.436 128.778,129.876 128.453 C 136.720 123.394,139.733 120.307,140.747 117.312 C 141.586 114.833,140.465 113.887,137.426 114.509 M200.354 114.794 C 195.958 116.409,195.726 120.605,199.655 127.391 C 200.181 128.300,200.908 129.681,201.270 130.460 C 202.725 133.594,202.912 134.238,202.912 136.121 C 202.912 140.916,198.709 142.669,187.367 142.604 C 182.253 142.575,181.601 142.776,180.424 144.746 C 179.758 145.862,179.736 148.404,180.381 149.655 C 184.097 156.866,204.000 154.100,208.468 145.752 C 208.809 145.115,209.326 145.275,209.662 146.123 C 210.621 148.547,213.489 151.447,215.702 152.232 C 217.884 153.006,218.357 153.042,225.030 152.934 C 231.307 152.832,232.888 152.703,235.301 152.098 C 237.443 151.561,237.983 151.391,239.787 150.684 C 240.826 150.276,241.758 149.943,241.858 149.942 C 242.193 149.940,248.553 146.879,250.177 145.939 C 250.697 145.638,251.759 145.050,252.538 144.632 C 253.318 144.214,254.433 143.606,255.018 143.282 C 255.602 142.957,256.824 142.292,257.733 141.803 C 258.642 141.314,259.705 140.728,260.094 140.500 C 261.902 139.445,263.489 138.680,264.463 138.396 C 265.047 138.225,265.756 137.996,266.037 137.888 C 266.319 137.779,267.488 137.626,268.635 137.549 C 275.130 137.108,277.519 136.403,279.640 134.303 C 283.648 130.335,281.275 124.439,275.670 124.439 C 274.001 124.439,273.078 124.576,269.963 125.286 C 264.789 126.465,258.827 125.482,252.420 122.393 C 250.667 121.548,249.020 120.770,248.760 120.665 C 248.501 120.559,247.916 120.315,247.462 120.121 C 246.568 119.741,244.009 118.982,242.204 118.562 C 239.592 117.954,235.134 118.297,232.883 119.280 C 232.333 119.520,231.743 119.717,231.573 119.717 C 231.064 119.717,228.528 121.888,227.595 123.122 C 223.434 128.627,227.515 137.227,231.924 132.247 C 232.449 131.654,233.044 130.823,233.248 130.401 C 233.451 129.979,233.704 129.634,233.810 129.634 C 233.916 129.634,234.002 129.480,234.002 129.292 C 234.002 128.445,235.629 127.646,237.322 127.662 C 238.903 127.676,239.481 127.822,241.497 128.717 C 242.047 128.962,242.557 129.162,242.630 129.162 C 242.702 129.162,243.343 129.534,244.054 129.988 C 244.764 130.443,245.450 130.815,245.577 130.815 C 245.705 130.815,245.809 130.901,245.809 131.007 C 245.809 131.113,246.154 131.383,246.576 131.607 C 249.030 132.910,250.043 133.652,249.895 134.037 C 249.415 135.287,243.378 139.035,240.614 139.798 C 240.030 139.960,239.126 140.223,238.607 140.384 C 238.087 140.545,236.865 140.804,235.891 140.960 C 234.917 141.116,233.642 141.343,233.058 141.464 C 232.473 141.586,229.286 141.709,225.974 141.740 L 219.953 141.795 218.744 141.157 C 216.735 140.097,215.544 138.217,214.288 134.120 C 213.949 133.017,213.571 131.929,213.448 131.703 C 213.324 131.478,213.223 131.086,213.223 130.832 C 213.223 130.578,213.117 130.305,212.987 130.224 C 212.857 130.144,212.751 129.884,212.751 129.648 C 212.751 129.280,211.811 126.850,210.462 123.731 C 207.118 115.997,204.172 113.392,200.354 114.794 M261.629 153.045 C 259.086 153.276,256.460 154.109,255.001 155.148 C 254.645 155.401,254.234 155.608,254.086 155.608 C 253.388 155.608,249.688 159.822,248.778 161.653 C 248.268 162.679,247.717 163.784,247.554 164.109 C 247.230 164.752,246.318 165.015,244.329 165.040 C 241.691 165.071,237.887 166.530,236.163 168.170 C 235.210 169.077,233.294 171.485,233.294 171.775 C 233.294 171.847,233.094 172.356,232.850 172.907 C 231.035 176.994,230.806 179.162,230.860 191.691 C 230.909 203.127,230.998 204.068,232.189 205.829 C 233.904 208.365,237.701 208.846,239.742 206.785 C 241.496 205.013,241.542 204.508,241.354 188.988 C 241.268 181.812,241.318 181.203,242.154 179.335 C 242.774 177.950,244.935 176.458,246.486 176.345 C 247.596 176.263,247.576 176.246,248.306 177.922 C 250.630 183.254,257.515 187.050,264.227 186.701 C 268.627 186.472,270.998 185.722,274.179 183.550 C 275.650 182.546,278.158 180.043,278.158 179.579 C 278.158 179.487,278.356 179.130,278.599 178.785 C 280.806 175.642,281.373 168.772,279.809 164.094 C 279.004 161.684,276.061 157.030,275.339 157.024 C 275.266 157.023,274.871 156.708,274.460 156.323 C 274.050 155.938,272.934 155.238,271.981 154.767 C 271.028 154.297,270.063 153.815,269.838 153.697 C 269.612 153.579,269.177 153.483,268.870 153.483 C 268.563 153.483,268.003 153.384,267.627 153.264 C 266.678 152.961,263.747 152.854,261.629 153.045 M309.209 154.483 C 306.007 155.634,304.132 158.350,304.132 161.837 C 304.132 169.567,314.772 171.871,318.298 164.904 C 321.168 159.232,315.161 152.344,309.209 154.483 M172.156 158.581 C 169.535 159.285,167.707 161.065,166.911 163.685 C 164.836 170.516,172.893 176.127,178.562 171.798 C 185.040 166.852,180.008 156.469,172.156 158.581 M201.697 158.561 C 196.152 160.111,194.309 166.898,198.327 170.975 C 203.088 175.808,211.098 172.534,211.098 165.755 C 211.098 160.901,206.343 157.263,201.697 158.561 M265.525 164.860 C 271.376 166.853,271.920 173.579,266.422 175.936 C 260.830 178.332,253.732 170.563,257.815 166.514 C 258.622 165.713,259.002 165.475,260.508 164.823 C 261.591 164.355,264.095 164.373,265.525 164.860 M151.721 166.011 C 147.927 167.903,147.563 172.845,151.019 175.516 C 152.553 176.702,154.614 178.040,154.904 178.040 C 155.032 178.040,155.136 178.146,155.136 178.276 C 155.136 178.406,155.241 178.512,155.369 178.512 C 155.905 178.512,159.112 180.798,160.462 182.142 C 163.207 184.873,164.064 187.730,162.890 190.228 C 162.409 191.252,160.603 192.896,159.944 192.910 C 159.797 192.914,159.372 193.075,159.000 193.269 C 158.628 193.463,158.100 193.622,157.827 193.623 C 157.555 193.624,157.023 193.728,156.647 193.855 C 156.270 193.982,153.016 194.180,149.414 194.296 L 142.866 194.506 142.035 195.140 C 139.811 196.836,139.658 200.498,141.717 202.732 C 146.616 208.047,163.323 205.329,169.547 198.205 C 176.889 189.802,174.705 178.671,164.146 170.676 C 162.892 169.726,161.830 168.870,161.787 168.772 C 161.743 168.675,161.614 168.595,161.499 168.595 C 161.384 168.595,160.567 168.127,159.683 167.556 C 156.718 165.638,153.659 165.044,151.721 166.011 " stroke="none" fill="#075472" fill-rule="evenodd"></path><path id="path1" d="M10.390 145.347 C 10.390 145.544,10.956 146.473,11.649 147.410 C 14.149 150.794,25.807 166.853,27.811 169.674 C 29.320 171.798,29.125 171.790,30.764 169.797 C 32.598 167.567,37.919 163.391,38.910 163.402 C 39.003 163.403,39.929 163.040,40.968 162.595 C 43.691 161.428,43.739 161.413,49.115 159.935 C 55.863 158.080,67.961 157.098,71.510 158.116 C 74.502 158.975,75.971 162.166,74.156 163.862 C 73.380 164.586,72.841 164.686,67.651 165.064 C 60.769 165.565,56.115 166.199,52.302 167.156 C 50.218 167.679,49.202 167.922,48.580 168.046 C 48.222 168.118,47.870 168.271,47.799 168.386 C 47.728 168.501,47.525 168.595,47.347 168.595 C 47.169 168.595,46.219 168.967,45.235 169.421 C 44.251 169.876,43.394 170.248,43.331 170.248 C 42.899 170.248,39.828 172.507,39.036 173.406 C 35.279 177.674,38.785 182.870,47.934 186.592 C 48.259 186.724,48.709 186.926,48.934 187.041 C 49.160 187.155,49.507 187.249,49.705 187.249 C 49.903 187.249,50.250 187.342,50.475 187.456 C 50.701 187.570,51.257 187.775,51.712 187.911 C 64.295 191.678,82.239 189.711,90.740 183.632 C 95.891 179.949,95.778 176.053,90.120 162.220 C 87.651 156.184,87.824 153.224,90.739 151.585 C 91.239 151.304,91.598 151.024,91.536 150.962 C 91.402 150.828,84.061 150.162,82.881 150.177 C 81.782 150.191,70.106 149.370,62.692 148.757 C 60.071 148.540,55.033 148.172,46.517 147.576 C 44.634 147.444,41.659 147.231,39.906 147.103 C 38.152 146.974,32.893 146.604,28.217 146.279 C 23.542 145.955,18.442 145.586,16.883 145.461 C 10.735 144.965,10.390 144.959,10.390 145.347 M95.986 151.493 C 98.377 152.818,98.664 153.419,102.739 165.643 C 103.388 167.591,104.010 169.398,104.120 169.658 C 104.230 169.917,104.448 170.502,104.604 170.956 C 104.761 171.411,104.973 171.995,105.077 172.255 C 105.180 172.515,105.395 173.099,105.554 173.554 C 106.713 176.876,109.111 182.078,109.800 182.763 C 109.865 182.828,110.229 183.338,110.609 183.897 C 115.049 190.441,123.608 190.770,126.551 184.509 C 126.818 183.941,127.037 183.322,127.037 183.133 C 127.037 182.945,127.133 182.731,127.252 182.658 C 127.370 182.585,127.536 181.649,127.620 180.578 C 127.765 178.740,127.649 177.730,126.989 175.089 C 125.540 169.284,128.002 166.165,131.910 168.854 C 138.695 173.522,138.742 187.866,131.995 194.814 C 129.143 197.751,127.010 198.946,122.904 199.907 C 121.616 200.209,115.398 200.275,114.286 199.999 C 108.415 198.543,104.153 195.669,101.144 191.137 C 100.317 189.891,99.838 189.581,99.525 190.088 C 98.916 191.073,92.938 194.558,89.847 195.731 C 89.067 196.026,88.217 196.353,87.957 196.457 C 87.698 196.561,87.113 196.774,86.659 196.930 C 86.204 197.086,85.620 197.303,85.360 197.412 C 85.100 197.521,83.719 197.888,82.290 198.228 C 80.862 198.568,79.481 198.900,79.221 198.964 C 78.564 199.129,76.307 199.481,73.790 199.812 C 70.869 200.197,58.102 200.203,55.372 199.821 C 52.741 199.453,50.850 199.138,50.000 198.926 C 48.798 198.627,49.008 198.993,53.653 205.307 C 56.542 209.234,55.384 208.821,64.585 209.205 C 73.063 209.558,79.762 209.844,86.423 210.137 C 92.264 210.393,102.489 210.832,104.737 210.922 C 105.983 210.972,106.263 210.899,106.905 210.359 C 109.566 208.120,119.773 206.768,126.427 207.773 C 127.217 207.892,128.766 208.116,129.870 208.270 C 133.764 208.813,135.909 209.836,136.594 211.476 C 136.988 212.417,137.182 212.448,144.864 212.755 C 148.111 212.885,153.052 213.095,155.844 213.222 C 167.234 213.738,169.992 213.784,170.666 213.468 C 173.456 212.160,175.257 210.928,176.546 209.445 C 177.219 208.670,179.457 205.670,179.457 205.542 C 179.457 205.488,179.785 204.723,180.186 203.843 C 181.447 201.077,181.526 200.860,181.818 199.389 C 182.144 197.744,182.020 193.010,181.550 189.138 C 180.532 180.751,181.655 178.643,187.139 178.648 C 191.031 178.651,191.715 180.163,192.902 191.381 C 193.313 195.265,194.086 196.972,195.845 197.876 C 196.757 198.345,206.429 198.393,207.403 197.934 C 207.747 197.772,208.288 197.518,208.605 197.370 C 211.824 195.870,213.803 189.699,212.418 185.478 C 211.408 182.400,211.736 178.237,213.044 177.537 C 215.738 176.096,220.821 180.550,221.566 185.006 C 221.632 185.396,221.798 186.139,221.936 186.659 C 222.219 187.722,222.306 191.816,222.084 193.548 C 221.377 199.038,218.937 203.362,214.915 206.252 C 214.278 206.709,213.637 207.084,213.490 207.084 C 213.343 207.084,213.223 207.164,213.223 207.262 C 213.223 207.360,212.878 207.581,212.456 207.753 C 210.236 208.656,209.651 208.850,207.411 209.430 C 206.854 209.574,204.007 209.681,200.752 209.681 C 194.773 209.681,193.486 209.519,191.388 208.504 C 190.111 207.886,190.171 207.868,189.612 209.032 C 188.845 210.627,188.326 211.474,187.281 212.828 C 186.104 214.354,186.071 214.637,187.072 214.650 C 187.856 214.660,193.975 214.915,203.660 215.340 C 206.647 215.471,211.535 215.683,214.522 215.812 C 217.509 215.941,223.512 216.211,227.863 216.412 C 232.214 216.613,238.164 216.883,241.086 217.011 C 251.301 217.462,257.301 217.724,262.456 217.945 C 271.780 218.344,278.377 218.637,286.423 219.009 C 298.952 219.588,306.979 219.944,321.015 220.544 C 330.382 220.944,336.397 221.210,342.590 221.498 L 348.580 221.776 349.308 221.049 C 350.279 220.078,349.985 219.892,348.493 220.534 C 347.492 220.965,346.937 221.046,345.475 220.974 C 335.858 220.504,336.066 206.273,345.691 206.260 C 351.012 206.253,354.515 211.025,352.926 216.116 C 352.544 217.340,353.137 216.722,358.914 209.883 C 362.096 206.116,366.983 200.349,369.776 197.068 C 385.401 178.706,389.972 173.271,390.037 172.977 C 390.123 172.591,390.257 172.605,378.985 171.778 C 374.504 171.449,369.598 171.077,368.082 170.950 C 365.430 170.729,362.692 170.647,362.692 170.788 C 362.692 170.826,363.221 171.419,363.867 172.108 C 366.787 175.218,368.191 180.601,367.540 186.187 C 367.360 187.729,366.323 191.481,365.977 191.842 C 365.858 191.965,365.762 192.203,365.762 192.371 C 365.762 193.730,360.275 199.764,359.039 199.764 C 358.960 199.764,358.607 199.974,358.255 200.231 C 357.626 200.690,355.766 201.363,353.294 202.026 C 351.713 202.450,336.665 202.511,334.891 202.101 C 328.920 200.721,325.260 198.706,323.461 195.809 C 322.827 194.789,322.757 194.815,321.752 196.443 C 320.208 198.945,317.317 201.128,314.269 202.094 C 313.178 202.440,305.683 202.445,304.195 202.101 C 301.005 201.364,299.799 200.800,297.807 199.116 C 295.134 196.854,293.839 193.999,292.802 188.076 C 292.666 187.296,292.486 181.917,292.402 176.120 L 292.250 165.582 291.048 165.421 C 290.387 165.332,288.359 165.162,286.541 165.044 C 284.723 164.926,282.512 164.758,281.628 164.672 C 280.023 164.514,280.022 164.515,280.151 165.079 C 280.654 167.281,280.745 167.994,280.750 169.776 C 280.758 172.930,279.752 177.143,278.599 178.785 C 278.356 179.130,278.158 179.487,278.158 179.579 C 278.158 180.043,275.650 182.546,274.179 183.550 C 269.565 186.700,264.255 187.535,258.442 186.024 C 254.083 184.891,249.879 181.531,248.306 177.922 C 247.576 176.246,247.596 176.263,246.486 176.345 C 244.935 176.458,242.774 177.950,242.154 179.335 C 241.318 181.203,241.268 181.812,241.354 188.988 C 241.542 204.508,241.496 205.013,239.742 206.785 C 237.701 208.846,233.904 208.365,232.189 205.829 C 230.998 204.068,230.909 203.127,230.860 191.691 C 230.806 179.162,231.035 176.994,232.850 172.907 C 233.094 172.356,233.294 171.847,233.294 171.775 C 233.294 171.485,235.210 169.077,236.163 168.170 C 238.026 166.398,241.271 165.235,245.100 164.968 C 247.285 164.816,247.508 164.671,248.072 163.031 L 248.332 162.274 247.273 162.129 C 246.691 162.049,245.533 161.983,244.699 161.983 C 243.866 161.983,242.207 161.875,241.013 161.743 C 239.820 161.611,234.965 161.239,230.224 160.917 C 220.990 160.290,216.473 159.969,211.853 159.611 C 207.403 159.267,207.632 159.191,208.970 160.564 C 214.504 166.245,208.460 175.550,201.012 172.816 C 195.450 170.774,194.474 162.673,199.421 159.615 C 200.446 158.982,200.279 158.678,198.905 158.678 C 198.318 158.678,196.863 158.576,195.672 158.451 C 194.481 158.326,191.806 158.110,189.728 157.969 C 187.651 157.829,184.569 157.611,182.881 157.485 C 181.192 157.359,174.445 156.888,167.887 156.439 C 161.328 155.990,155.047 155.514,153.928 155.379 C 152.810 155.245,151.141 155.136,150.219 155.136 C 149.297 155.136,147.769 155.036,146.822 154.915 C 145.875 154.793,143.400 154.578,141.322 154.438 C 139.244 154.297,133.825 153.921,129.280 153.603 C 124.734 153.285,119.368 152.912,117.355 152.774 C 115.342 152.637,113.217 152.468,112.633 152.400 C 112.048 152.331,110.083 152.178,108.264 152.060 C 104.643 151.824,99.517 151.452,96.930 151.237 C 95.292 151.101,95.284 151.104,95.986 151.493 M175.490 158.471 C 181.861 159.821,183.715 167.864,178.562 171.798 C 174.854 174.630,169.279 173.229,167.276 168.963 C 164.683 163.437,169.556 157.213,175.490 158.471 M261.983 164.513 C 260.472 164.642,258.979 165.359,257.815 166.514 C 256.734 167.586,256.394 168.679,256.713 170.059 C 258.044 175.815,264.587 178.373,268.351 174.608 C 272.811 170.148,268.884 163.921,261.983 164.513 M156.567 166.021 C 157.397 166.293,158.800 166.984,159.683 167.556 C 160.567 168.127,161.384 168.595,161.499 168.595 C 161.614 168.595,161.743 168.675,161.787 168.772 C 161.830 168.870,162.892 169.726,164.146 170.676 C 174.705 178.671,176.889 189.802,169.547 198.205 C 163.323 205.329,146.616 208.047,141.717 202.732 C 139.658 200.498,139.811 196.836,142.035 195.140 L 142.866 194.506 149.414 194.296 C 153.016 194.180,156.270 193.982,156.647 193.855 C 157.023 193.728,157.555 193.624,157.827 193.623 C 158.100 193.622,158.628 193.463,159.000 193.269 C 159.372 193.075,159.797 192.914,159.944 192.910 C 160.603 192.896,162.409 191.252,162.890 190.228 C 164.064 187.730,163.207 184.873,160.462 182.142 C 159.112 180.798,155.905 178.512,155.369 178.512 C 155.241 178.512,155.136 178.406,155.136 178.276 C 155.136 178.146,155.032 178.040,154.904 178.040 C 154.614 178.040,152.553 176.702,151.019 175.516 C 145.539 171.282,149.893 163.830,156.567 166.021 M302.893 172.641 C 302.763 186.865,302.814 187.331,304.722 189.262 C 307.042 191.611,314.400 191.782,316.939 189.546 C 318.663 188.029,319.008 186.871,319.009 182.610 C 319.010 174.124,320.031 171.618,323.507 171.570 C 325.801 171.539,327.447 173.348,327.998 176.509 C 328.329 178.405,328.684 180.744,328.851 182.118 C 328.925 182.738,329.079 183.302,329.192 183.372 C 329.305 183.442,329.401 183.732,329.405 184.016 C 329.437 186.125,333.892 189.636,337.831 190.656 C 340.207 191.271,351.056 191.304,352.656 190.700 C 357.262 188.964,359.280 184.037,357.818 178.096 C 357.045 174.957,356.945 172.093,357.574 171.155 C 357.832 170.771,357.904 170.471,357.759 170.382 C 357.515 170.231,343.511 169.150,328.571 168.129 C 326.883 168.013,324.120 167.800,322.432 167.654 C 316.307 167.126,316.733 167.113,315.706 167.857 C 313.145 169.712,309.296 169.472,306.600 167.290 C 305.879 166.706,305.312 166.474,304.298 166.348 L 302.952 166.179 302.893 172.641 " stroke="none" fill="#f90405" fill-rule="evenodd"></path><path id="path2" d="M193.034 7.566 C 180.870 9.119,174.214 10.511,165.762 13.268 C 128.829 25.313,99.893 54.161,87.796 90.995 C 87.150 92.961,86.464 95.153,86.270 95.868 C 84.332 103.025,82.951 110.113,82.519 115.112 C 82.441 116.021,82.198 117.243,81.979 117.828 C 81.440 119.270,81.372 139.064,81.903 139.997 C 82.079 140.306,82.365 141.794,82.539 143.302 C 83.192 148.968,83.394 149.972,83.926 150.185 C 84.396 150.373,89.553 150.813,93.287 150.982 C 95.965 151.104,102.326 151.586,104.620 151.841 C 105.733 151.965,107.337 152.066,108.184 152.066 C 109.031 152.066,110.565 152.166,111.592 152.288 C 112.619 152.411,115.159 152.626,117.237 152.767 C 119.315 152.907,124.734 153.283,129.280 153.602 C 133.825 153.921,139.244 154.297,141.322 154.438 C 143.400 154.578,145.875 154.793,146.822 154.915 C 147.769 155.036,149.297 155.136,150.219 155.136 C 151.141 155.136,152.810 155.245,153.928 155.379 C 155.047 155.514,161.328 155.991,167.887 156.440 C 174.445 156.889,181.246 157.362,182.999 157.490 C 184.752 157.618,187.727 157.832,189.610 157.965 C 193.755 158.259,198.648 158.659,199.729 158.794 C 200.164 158.848,201.161 158.728,201.945 158.527 C 203.550 158.116,204.930 158.231,206.612 158.918 C 207.358 159.223,208.832 159.429,211.570 159.613 C 213.713 159.757,216.848 159.978,218.536 160.105 C 220.224 160.231,225.431 160.596,230.106 160.916 C 234.782 161.235,239.829 161.604,241.322 161.735 C 242.816 161.866,245.014 162.027,246.207 162.092 L 248.376 162.212 249.123 160.905 C 249.882 159.580,253.606 155.608,254.090 155.608 C 254.236 155.608,254.645 155.401,255.001 155.148 C 257.495 153.372,264.990 152.235,267.617 153.234 C 267.977 153.371,268.532 153.483,268.850 153.483 C 269.168 153.483,269.612 153.579,269.838 153.697 C 270.063 153.815,271.045 154.305,272.019 154.786 C 272.993 155.267,273.843 155.730,273.908 155.815 C 273.973 155.900,274.398 156.273,274.852 156.644 C 276.778 158.216,278.600 160.904,279.766 163.898 C 280.037 164.593,280.304 164.638,286.541 165.044 C 288.359 165.162,290.404 165.334,291.086 165.425 C 291.768 165.516,292.340 165.550,292.358 165.499 C 292.375 165.449,292.455 162.485,292.535 158.914 C 292.662 153.244,292.736 152.308,293.119 151.537 C 295.023 147.707,300.269 147.208,301.944 150.697 C 302.886 152.657,302.952 153.252,302.952 159.786 L 302.952 166.173 304.160 166.333 C 305.683 166.535,305.656 166.591,304.830 164.952 C 303.478 162.272,304.030 158.637,306.108 156.528 C 312.558 149.988,322.754 158.225,317.683 165.880 C 316.841 167.151,316.914 167.310,318.371 167.391 C 319.518 167.454,322.626 155.360,323.947 145.691 C 324.204 143.808,324.580 141.045,324.783 139.551 C 325.301 135.730,325.301 122.356,324.782 118.536 C 323.108 106.203,322.500 102.971,320.517 95.868 C 319.691 92.907,319.535 92.424,317.930 87.839 C 304.782 50.274,271.977 20.571,233.058 10.992 C 226.231 9.312,224.532 8.993,217.828 8.130 C 216.269 7.930,214.303 7.669,213.459 7.551 C 211.631 7.294,195.064 7.306,193.034 7.566 M146.069 51.721 C 146.925 52.047,147.327 52.614,147.336 53.510 C 147.349 54.806,145.903 55.937,140.968 58.489 C 136.586 60.755,132.556 63.522,131.701 64.851 C 131.605 65.002,131.055 65.702,130.481 66.407 C 128.834 68.428,127.832 70.496,126.780 74.043 C 126.175 76.079,126.925 80.697,128.239 83.038 C 129.587 85.437,132.120 88.281,133.580 89.034 C 133.942 89.221,134.292 89.432,134.357 89.504 C 134.646 89.825,136.999 90.777,139.315 91.511 C 141.167 92.098,147.532 92.108,149.705 91.527 C 153.139 90.610,155.799 89.526,157.686 88.276 C 158.244 87.906,158.783 87.603,158.883 87.603 C 159.098 87.603,162.220 84.420,162.220 84.201 C 162.220 84.119,162.501 83.606,162.845 83.061 C 163.650 81.785,163.775 78.706,163.065 77.627 C 161.414 75.119,157.957 74.031,148.996 73.200 C 142.577 72.606,140.295 71.234,140.846 68.299 C 141.200 66.408,144.435 63.118,147.816 61.209 C 148.270 60.953,149.333 60.343,150.177 59.856 C 151.021 59.368,152.349 58.606,153.129 58.162 C 155.831 56.622,161.931 53.837,162.602 53.837 C 162.785 53.837,163.119 53.743,163.344 53.629 C 165.813 52.375,172.049 52.680,172.492 54.076 C 173.162 56.187,172.003 57.060,161.688 62.207 C 154.943 65.573,153.752 66.352,155.354 66.352 C 156.298 66.352,160.110 67.100,162.102 67.676 C 165.308 68.604,165.249 68.582,167.288 69.567 C 168.876 70.334,172.845 74.071,172.845 74.799 C 172.845 75.036,172.933 75.331,173.040 75.455 C 174.257 76.854,174.245 83.914,173.021 86.895 C 171.678 90.167,166.254 97.048,165.018 97.048 C 164.897 97.048,164.594 97.238,164.346 97.469 C 163.170 98.564,156.771 101.303,154.191 101.815 C 153.607 101.931,152.544 102.150,151.830 102.301 C 150.118 102.664,140.792 102.664,139.079 102.301 C 138.365 102.150,137.302 101.928,136.718 101.808 C 132.065 100.850,126.113 97.518,122.609 93.909 C 121.668 92.940,120.897 92.085,120.897 92.011 C 120.897 91.937,120.419 91.192,119.835 90.356 C 119.250 89.520,118.772 88.774,118.772 88.698 C 118.772 88.622,118.417 87.831,117.983 86.939 C 117.181 85.291,117.105 85.082,116.543 82.999 C 113.041 69.999,120.826 57.710,135.773 52.643 C 139.050 51.532,144.329 51.059,146.069 51.721 M229.555 62.476 C 231.825 63.626,234.580 66.849,236.452 70.543 C 237.275 72.168,237.318 72.149,238.568 69.599 C 245.596 55.264,263.592 65.564,260.124 81.936 C 259.413 85.291,258.820 86.814,257.707 88.145 C 257.404 88.508,257.038 89.252,256.894 89.798 C 255.349 95.659,247.362 97.757,242.806 93.498 C 241.802 92.561,241.324 92.582,241.316 93.566 C 241.295 96.239,239.120 99.937,236.009 102.589 L 235.301 103.193 242.674 103.131 C 251.314 103.059,251.009 103.149,251.192 100.614 C 251.294 99.211,251.673 98.660,252.135 99.247 C 252.256 99.401,252.421 101.038,252.501 102.883 L 252.647 106.238 240.173 106.307 C 225.830 106.386,226.972 106.180,226.869 108.698 C 226.808 110.209,226.750 110.390,226.328 110.390 C 225.885 110.390,225.329 100.716,225.701 99.469 C 226.011 98.427,226.683 99.232,226.686 100.649 C 226.691 103.316,226.528 103.188,229.914 103.188 C 232.769 103.188,232.884 103.168,233.842 102.507 C 237.151 100.226,238.960 96.855,239.350 92.241 C 239.658 88.593,239.034 87.927,237.339 90.097 C 234.417 93.839,231.033 94.887,227.484 93.151 C 223.985 91.439,220.902 86.280,221.043 82.374 C 221.083 81.263,221.009 80.889,220.716 80.725 C 219.108 79.825,217.472 75.337,217.477 71.836 C 217.484 67.020,218.452 64.717,221.259 62.842 L 222.722 61.865 225.537 61.865 C 228.095 61.865,228.461 61.921,229.555 62.476 M225.502 67.034 C 221.603 67.862,219.405 73.025,220.868 77.922 C 221.144 78.849,221.960 79.586,221.960 78.909 C 221.960 78.367,224.179 76.284,225.546 75.543 C 228.460 73.962,232.556 74.430,235.135 76.637 C 236.785 78.049,237.066 77.251,236.012 74.151 C 234.224 68.894,230.051 66.069,225.502 67.034 M246.871 68.327 C 243.867 69.070,241.520 71.167,239.751 74.690 L 238.683 76.816 238.763 79.132 C 238.878 82.471,239.267 82.798,240.605 80.680 C 244.926 73.837,252.801 75.621,256.455 84.270 C 257.188 86.005,257.390 85.887,257.992 83.369 C 259.583 76.716,255.641 69.373,249.941 68.374 C 249.421 68.283,248.784 68.170,248.524 68.122 C 248.264 68.074,247.521 68.167,246.871 68.327 M187.603 82.225 C 190.096 83.504,190.437 85.239,190.225 95.580 C 189.806 116.060,189.004 125.911,187.368 130.697 C 185.129 137.244,182.317 137.762,180.961 131.877 C 180.410 129.485,179.422 92.069,179.810 88.312 C 180.331 83.277,184.027 80.390,187.603 82.225 M140.250 114.517 C 143.209 116.100,139.074 121.655,129.876 128.453 C 129.436 128.778,128.591 129.420,127.998 129.879 C 126.832 130.782,123.315 133.308,122.423 133.884 C 122.121 134.079,120.466 135.195,118.745 136.364 C 115.157 138.800,115.311 138.703,110.349 141.660 C 105.333 144.648,102.264 146.302,100.236 147.109 C 99.976 147.212,99.271 147.515,98.668 147.781 C 98.066 148.048,97.269 148.333,96.897 148.414 C 96.526 148.496,95.956 148.649,95.632 148.755 C 90.214 150.526,86.705 148.435,88.582 144.556 C 89.387 142.894,94.641 137.898,95.585 137.898 C 95.709 137.898,95.933 137.751,96.083 137.570 C 96.233 137.389,97.335 136.738,98.532 136.124 C 99.729 135.509,101.399 134.606,102.243 134.118 C 104.830 132.620,105.626 132.171,106.730 131.586 C 107.314 131.276,108.217 130.764,108.737 130.449 C 109.256 130.134,110.053 129.693,110.508 129.471 C 110.962 129.248,112.052 128.610,112.930 128.051 C 113.808 127.493,114.576 127.037,114.636 127.037 C 114.695 127.037,115.553 126.558,116.542 125.974 C 117.530 125.390,118.391 124.911,118.454 124.911 C 118.517 124.911,119.032 124.593,119.599 124.203 C 120.165 123.813,120.694 123.495,120.774 123.495 C 120.854 123.495,121.473 123.148,122.148 122.725 C 122.824 122.302,123.695 121.798,124.085 121.606 C 124.475 121.413,125.355 120.904,126.041 120.474 C 126.727 120.044,127.896 119.359,128.638 118.953 C 129.381 118.547,130.891 117.673,131.995 117.012 C 135.864 114.696,138.881 113.784,140.250 114.517 M204.551 115.098 C 206.874 116.213,208.376 118.661,211.785 126.887 C 212.316 128.168,212.751 129.411,212.751 129.648 C 212.751 129.884,212.857 130.144,212.987 130.224 C 213.117 130.305,213.223 130.578,213.223 130.832 C 213.223 131.086,213.324 131.478,213.448 131.703 C 213.571 131.929,213.949 133.017,214.288 134.120 C 215.544 138.217,216.735 140.097,218.744 141.157 L 219.953 141.795 225.974 141.740 C 229.286 141.709,232.473 141.586,233.058 141.464 C 233.642 141.343,234.917 141.116,235.891 140.960 C 236.865 140.804,238.087 140.545,238.607 140.384 C 239.126 140.223,240.030 139.960,240.614 139.798 C 243.378 139.035,249.415 135.287,249.895 134.037 C 250.043 133.652,249.030 132.910,246.576 131.607 C 246.154 131.383,245.809 131.113,245.809 131.007 C 245.809 130.901,245.705 130.815,245.577 130.815 C 245.450 130.815,244.764 130.443,244.054 129.988 C 243.343 129.534,242.702 129.162,242.630 129.162 C 242.557 129.162,242.047 128.962,241.497 128.717 C 239.481 127.822,238.903 127.676,237.322 127.662 C 235.629 127.646,234.002 128.445,234.002 129.292 C 234.002 129.480,233.916 129.634,233.810 129.634 C 233.704 129.634,233.451 129.979,233.248 130.401 C 233.044 130.823,232.449 131.654,231.924 132.247 C 227.515 137.227,223.434 128.627,227.595 123.122 C 228.528 121.888,231.064 119.717,231.573 119.717 C 231.743 119.717,232.333 119.520,232.883 119.280 C 235.134 118.297,239.592 117.954,242.204 118.562 C 244.009 118.982,246.568 119.741,247.462 120.121 C 247.916 120.315,248.501 120.559,248.760 120.665 C 249.020 120.770,250.667 121.548,252.420 122.393 C 258.827 125.482,264.789 126.465,269.963 125.286 C 275.730 123.972,277.785 124.087,279.702 125.832 C 282.312 128.207,282.287 131.682,279.640 134.303 C 277.519 136.403,275.130 137.108,268.635 137.549 C 267.488 137.626,266.319 137.779,266.037 137.888 C 265.756 137.996,265.047 138.225,264.463 138.396 C 263.489 138.680,261.902 139.445,260.094 140.500 C 259.705 140.728,258.642 141.314,257.733 141.803 C 256.824 142.292,255.602 142.957,255.018 143.282 C 254.433 143.606,253.318 144.214,252.538 144.632 C 251.759 145.050,250.697 145.638,250.177 145.939 C 248.553 146.879,242.193 149.940,241.858 149.942 C 241.758 149.943,240.826 150.276,239.787 150.684 C 237.983 151.391,237.443 151.561,235.301 152.098 C 232.888 152.703,231.307 152.832,225.030 152.934 C 218.357 153.042,217.884 153.006,215.702 152.232 C 213.489 151.447,210.621 148.547,209.662 146.123 C 209.326 145.275,208.809 145.115,208.468 145.752 C 204.000 154.100,184.097 156.866,180.381 149.655 C 179.736 148.404,179.758 145.862,180.424 144.746 C 181.601 142.776,182.253 142.575,187.367 142.604 C 198.709 142.669,202.912 140.916,202.912 136.121 C 202.912 134.238,202.725 133.594,201.270 130.460 C 200.908 129.681,200.181 128.300,199.655 127.391 C 196.685 122.263,196.148 119.652,197.554 117.186 C 198.922 114.787,201.995 113.870,204.551 115.098 " stroke="none" fill="#fbbb04" fill-rule="evenodd"></path></g></svg>